# xmcd CD database file
#
# Track frame offsets:
#	150
#	20353
#	37162
#	56213
#	86538
#	105680
#	126745
#	142747
#	166811
#	198286
#	223981
#	243911
#
# Disc length: 3636 seconds
#
# Revision: 3
# Processed by: cddbd v1.5.2PL0 Copyright (c) Steve Scherf et al.
# Submitted via: CDex 1.51
#
DISCID=ad0e320c
DTITLE=Ultra.Weekend - 02 [Disc 02]
DYEAR=2006
DGENRE=Dance
TTITLE0=Freemasons [Featuring Amanda Wilson] - Love On My Mind [Original Dj Hope Mixshow Edit]
TTITLE1=Aaron Smith [Featuring Luvli] - Dancin' [Jj Flores and Steve Smooth Mix]
TTITLE2=David Morales [Featuring Angela Hunte] - Feels Good [StoneBridge Club Mix]
TTITLE3=Olav Basoski [Featuring Michie One] - Waterman [Original Extended]
TTITLE4=Morrisson - Love Of My Life [Club Mix]
TTITLE5=Filterfunk - S.O.S. [Message In A Bottle] [Hi_Tack Remix]
TTITLE6=Chanel - My Life [Haji and Emanuel Remix Dj Hope Mixshow Edit]
TTITLE7=Starkillers - Discoteka [Austin Leeds and Terranova Remix]
TTITLE8=Editors - Munich [Cicada Remix]
TTITLE9=Soul Central - Need You Now [Deep Josh Remix]
TTITLE10=Ferry Corsten - Fire [Extended]
TTITLE11=Goldfrapp - Ooh La La [Benny Benassi Remix]
EXTD=YEAR: 2006
EXTT0=
EXTT1=
EXTT2=
EXTT3=
EXTT4=
EXTT5=
EXTT6=
EXTT7=
EXTT8=
EXTT9=
EXTT10=
EXTT11=
PLAYORDER=
